<?xml version="1.0" encoding="iso-8859-1"?>
<svg version="1.1" id="Layer_1" xmlns="http://www.w3.org/2000/svg" xmlns:xlink="http://www.w3.org/1999/xlink" x="0px" y="0px"
	 viewBox="0 0 512 512" style="enable-background:new 0 0 512 512;" xml:space="preserve">
<g>
	<g>
		<path fill="#fff" d="M477.97,377.453h-17.677v-44.354h17.679c12.452,0,22.547-10.095,22.547-22.547c0-110.482-74.363-206.769-179.308-235.713
			v-9.628C321.209,29.253,291.956,0,256.001,0c-35.957,0-65.21,29.253-65.21,65.21v9.628
			C85.845,103.779,11.481,200.067,11.481,310.55c0,12.452,10.095,22.547,22.547,22.547h17.679v44.354H34.031
			c-12.452,0-22.547,10.095-22.547,22.547v89.454c0,12.452,10.095,22.547,22.547,22.547h443.937
			c12.452,0,22.547-10.095,22.547-22.547v-89.454C500.517,387.546,490.422,377.453,477.97,377.453z M276.114,66.866
			c-12.802-1.036-26.798-1.088-40.23,0.002C235.886,37.848,276.114,37.883,276.114,66.866z M96.802,377.453v-44.354h318.395v44.354
			H96.802z"/>
	</g>
</g>
<g>
</g>
<g>
</g>
<g>
</g>
<g>
</g>
<g>
</g>
<g>
</g>
<g>
</g>
<g>
</g>
<g>
</g>
<g>
</g>
<g>
</g>
<g>
</g>
<g>
</g>
<g>
</g>
<g>
</g>
</svg>
